<?xml version="1.0" encoding="UTF-8" standalone="no"?>
<!DOCTYPE svg PUBLIC "-//W3C//DTD SVG 1.1//EN" "http://www.w3.org/Graphics/SVG/1.1/DTD/svg11.dtd">
<svg width="100%" height="100%" viewBox="0 0 1024 1024" version="1.1" xmlns="http://www.w3.org/2000/svg" xmlns:xlink="http://www.w3.org/1999/xlink" xml:space="preserve" xmlns:serif="http://www.serif.com/" style="fill-rule:evenodd;clip-rule:evenodd;stroke-linejoin:round;stroke-miterlimit:1.41421;">
    <g transform="matrix(1,0,0,1,-50,-50)">
        <g transform="matrix(0.4096,0,0,0.4096,50,50)">
            <g id="Icon">
                <g>
                    <rect x="0" y="0" width="2500" height="2500" style="fill:white;"/>
                    <g id="Symbol" transform="matrix(8.48577,0,0,8.48577,-4941.49,-3467.92)">
                        <path d="M729.632,443.439C661.601,443.44 606.45,498.709 606.45,566.889C606.45,601.081 620.324,632.019 642.735,654.374C644.173,655.808 646.634,655.468 647.616,653.69C658.112,634.678 676.52,619.816 698.976,612.576C684.327,602.687 674.688,585.911 674.688,566.878C674.688,536.468 699.287,511.816 729.632,511.815C759.977,511.816 784.576,536.468 784.576,566.878C784.576,585.911 774.937,602.687 760.287,612.576C782.744,619.816 801.151,634.678 811.648,653.69C812.629,655.468 815.091,655.808 816.529,654.374C838.939,632.019 852.814,601.081 852.814,566.889C852.814,498.709 797.662,443.44 729.632,443.439Z" style="fill:url(#_Linear1);"/>
                    </g>
                </g>
            </g>
        </g>
    </g>
    <defs>
        <linearGradient id="_Linear1" x1="0" y1="0" x2="1" y2="0" gradientUnits="userSpaceOnUse" gradientTransform="matrix(107.632,-294.611,294.611,107.632,667.162,703.286)"><stop offset="0" style="stop-color:rgb(148,148,148);stop-opacity:1"/><stop offset="0.57" style="stop-color:rgb(158,158,158);stop-opacity:1"/><stop offset="0.79" style="stop-color:rgb(179,179,179);stop-opacity:1"/><stop offset="1" style="stop-color:rgb(198,198,198);stop-opacity:1"/></linearGradient>
    </defs>
</svg>
