<?xml version="1.0" encoding="UTF-8" standalone="no"?>
<!DOCTYPE svg PUBLIC "-//W3C//DTD SVG 1.1//EN" "http://www.w3.org/Graphics/SVG/1.1/DTD/svg11.dtd">
<svg width="100%" height="100%" viewBox="0 0 3000 1274" version="1.1" xmlns="http://www.w3.org/2000/svg" xmlns:xlink="http://www.w3.org/1999/xlink" xml:space="preserve" xmlns:serif="http://www.serif.com/" style="fill-rule:evenodd;clip-rule:evenodd;stroke-linecap:round;stroke-linejoin:round;stroke-miterlimit:1.5;">
    <g id="Background">
        <g transform="matrix(6.28931,0,0,3.46196,-8176.1,-588.533)">
            <rect x="1300" y="170" width="477" height="368" style="fill:rgb(38,38,38);"/>
        </g>
        <g transform="matrix(3.82809,0,0,1.32337,-3852.52,362.027)">
            <rect x="1300" y="170" width="477" height="368" style="fill:rgb(51,51,51);"/>
        </g>
        <g transform="matrix(3.82809,0,0,1.32337,-3852.52,-174.973)">
            <rect x="1300" y="170" width="477" height="368" style="fill:rgb(51,51,51);"/>
        </g>
        <g transform="matrix(1,0,0,1,1227.88,1812.51)">
            <text x="1472.03px" y="-970.083px" style="font-family:'HelveticaNeue-Bold', 'Helvetica Neue';font-weight:700;font-size:16px;fill:rgb(102,102,102);">2x</text>
        </g>
        <g transform="matrix(1,0,0,1,968.36,1812.51)">
            <text x="1472.03px" y="-970.083px" style="font-family:'HelveticaNeue-Bold', 'Helvetica Neue';font-weight:700;font-size:16px;fill:rgb(102,102,102);">2x</text>
        </g>
        <g transform="matrix(1,0,0,1,824.36,1812.51)">
            <text x="1472.03px" y="-970.083px" style="font-family:'HelveticaNeue-Bold', 'Helvetica Neue';font-weight:700;font-size:16px;fill:rgb(102,102,102);">1x</text>
        </g>
        <g transform="matrix(1,0,0,1,614.378,1812.51)">
            <text x="1472.03px" y="-970.083px" style="font-family:'HelveticaNeue-Bold', 'Helvetica Neue';font-weight:700;font-size:16px;fill:rgb(102,102,102);">2x</text>
        </g>
        <g transform="matrix(1,0,0,1,476.378,1812.51)">
            <text x="1472.03px" y="-970.083px" style="font-family:'HelveticaNeue-Bold', 'Helvetica Neue';font-weight:700;font-size:16px;fill:rgb(102,102,102);">1x</text>
        </g>
        <g transform="matrix(1,0,0,1,290.378,1812.51)">
            <text x="1472.03px" y="-970.083px" style="font-family:'HelveticaNeue-Bold', 'Helvetica Neue';font-weight:700;font-size:16px;fill:rgb(102,102,102);">2x</text>
        </g>
        <g transform="matrix(1,0,0,1,185.378,1812.51)">
            <text x="1472.03px" y="-970.083px" style="font-family:'HelveticaNeue-Bold', 'Helvetica Neue';font-weight:700;font-size:16px;fill:rgb(102,102,102);">1x</text>
        </g>
        <g transform="matrix(1,0,0,1,20.3777,1812.51)">
            <text x="1472.03px" y="-970.083px" style="font-family:'HelveticaNeue-Bold', 'Helvetica Neue';font-weight:700;font-size:16px;fill:rgb(102,102,102);">2x</text>
        </g>
        <g transform="matrix(1,0,0,1,-69.6223,1812.51)">
            <text x="1472.03px" y="-970.083px" style="font-family:'HelveticaNeue-Bold', 'Helvetica Neue';font-weight:700;font-size:16px;fill:rgb(102,102,102);">1x</text>
        </g>
        <g transform="matrix(1,0,0,1,-218.622,1812.51)">
            <text x="1472.03px" y="-970.083px" style="font-family:'HelveticaNeue-Bold', 'Helvetica Neue';font-weight:700;font-size:16px;fill:rgb(102,102,102);">2x</text>
        </g>
        <g transform="matrix(1,0,0,1,-292.122,1812.51)">
            <text x="1472.03px" y="-970.083px" style="font-family:'HelveticaNeue-Bold', 'Helvetica Neue';font-weight:700;font-size:16px;fill:rgb(102,102,102);">1x</text>
        </g>
        <g transform="matrix(1,0,0,1,918.378,1275.51)">
            <text x="1472.03px" y="-970.083px" style="font-family:'HelveticaNeue-Bold', 'Helvetica Neue';font-weight:700;font-size:16px;fill:rgb(102,102,102);">3x</text>
        </g>
        <g transform="matrix(1,0,0,1,718.378,1275.51)">
            <text x="1472.03px" y="-970.083px" style="font-family:'HelveticaNeue-Bold', 'Helvetica Neue';font-weight:700;font-size:16px;fill:rgb(102,102,102);">2x</text>
        </g>
        <g transform="matrix(1,0,0,1,501.378,1275.51)">
            <text x="1472.03px" y="-970.083px" style="font-family:'HelveticaNeue-Bold', 'Helvetica Neue';font-weight:700;font-size:16px;fill:rgb(102,102,102);">2x</text>
        </g>
        <g transform="matrix(1,0,0,1,385.878,1275.51)">
            <text x="1472.03px" y="-970.083px" style="font-family:'HelveticaNeue-Bold', 'Helvetica Neue';font-weight:700;font-size:16px;fill:rgb(102,102,102);">1x</text>
        </g>
        <g transform="matrix(1,0,0,1,197.378,1275.51)">
            <text x="1472.03px" y="-970.083px" style="font-family:'HelveticaNeue-Bold', 'Helvetica Neue';font-weight:700;font-size:16px;fill:rgb(102,102,102);">3x</text>
        </g>
        <g transform="matrix(1,0,0,1,67.3777,1275.51)">
            <text x="1472.03px" y="-970.083px" style="font-family:'HelveticaNeue-Bold', 'Helvetica Neue';font-weight:700;font-size:16px;fill:rgb(102,102,102);">2x</text>
        </g>
        <g transform="matrix(1,0,0,1,-116.122,1275.51)">
            <text x="1472.03px" y="-970.083px" style="font-family:'HelveticaNeue-Bold', 'Helvetica Neue';font-weight:700;font-size:16px;fill:rgb(102,102,102);">3x</text>
        </g>
        <g transform="matrix(1,0,0,1,-218.622,1275.51)">
            <text x="1472.03px" y="-970.083px" style="font-family:'HelveticaNeue-Bold', 'Helvetica Neue';font-weight:700;font-size:16px;fill:rgb(102,102,102);">2x</text>
        </g>
        <g transform="matrix(1,0,0,1,-292.122,1275.51)">
            <text x="1472.03px" y="-970.083px" style="font-family:'HelveticaNeue-Bold', 'Helvetica Neue';font-weight:700;font-size:16px;fill:rgb(102,102,102);">1x</text>
        </g>
        <g transform="matrix(1,0,0,1,1152.97,1891.36)">
            <text x="1472.03px" y="-970.083px" style="font-family:'HelveticaNeue', 'Helvetica Neue';font-size:20px;fill:rgb(153,153,153);">iPad Pr<tspan x="1536.85px 1548.33px " y="-970.083px -970.083px ">o </tspan>App</text>
            <text x="1472.03px" y="-949.523px" style="font-family:'HelveticaNeue', 'Helvetica Neue';font-size:20px;fill:rgb(153,153,153);">iOS 9-10</text>
            <text x="1472.03px" y="-928.963px" style="font-family:'HelveticaNeue', 'Helvetica Neue';font-size:20px;fill:rgb(153,153,153);">83.5pt</text>
        </g>
        <g transform="matrix(1,0,0,1,794.97,1891.36)">
            <text x="1472.03px" y="-970.083px" style="font-family:'HelveticaNeue', 'Helvetica Neue';font-size:20px;fill:rgb(153,153,153);">iPad App</text>
            <text x="1472.03px" y="-949.523px" style="font-family:'HelveticaNeue', 'Helvetica Neue';font-size:20px;fill:rgb(153,153,153);">iOS 7-10</text>
            <text x="1472.03px" y="-928.963px" style="font-family:'HelveticaNeue', 'Helvetica Neue';font-size:20px;fill:rgb(153,153,153);">76pt</text>
        </g>
        <g transform="matrix(1,0,0,1,448.97,1891.36)">
            <text x="1472.03px" y="-970.083px" style="font-family:'HelveticaNeue', 'Helvetica Neue';font-size:20px;fill:rgb(153,153,153);">iPad App</text>
            <text x="1472.03px" y="-949.523px" style="font-family:'HelveticaNeue', 'Helvetica Neue';font-size:20px;fill:rgb(153,153,153);">iOS 5,6</text>
            <text x="1472.03px" y="-928.963px" style="font-family:'HelveticaNeue', 'Helvetica Neue';font-size:20px;fill:rgb(153,153,153);">72pt</text>
        </g>
        <g transform="matrix(1,0,0,1,168.97,1891.36)">
            <text x="1472.03px" y="-970.083px" style="font-family:'HelveticaNeue', 'Helvetica Neue';font-size:20px;fill:rgb(153,153,153);">iPad Spotlight</text>
            <text x="1472.03px" y="-949.523px" style="font-family:'HelveticaNeue', 'Helvetica Neue';font-size:20px;fill:rgb(153,153,153);">iOS 5,6</text>
            <text x="1472.03px" y="-928.963px" style="font-family:'HelveticaNeue', 'Helvetica Neue';font-size:20px;fill:rgb(153,153,153);">50pt</text>
        </g>
        <g transform="matrix(1,0,0,1,-81.0303,1891.36)">
            <text x="1472.03px" y="-970.083px" style="font-family:'HelveticaNeue', 'Helvetica Neue';font-size:20px;fill:rgb(153,153,153);">iPad Spotlight</text>
            <text x="1472.03px" y="-949.523px" style="font-family:'HelveticaNeue', 'Helvetica Neue';font-size:20px;fill:rgb(153,153,153);">iOS 7-10</text>
            <text x="1472.03px" y="-928.963px" style="font-family:'HelveticaNeue', 'Helvetica Neue';font-size:20px;fill:rgb(153,153,153);">40pt</text>
        </g>
        <g transform="matrix(1,0,0,1,-298.03,1891.39)">
            <text x="1472.03px" y="-970.083px" style="font-family:'HelveticaNeue', 'Helvetica Neue';font-size:20px;fill:rgb(153,153,153);">iPad Settings</text>
            <text x="1472.03px" y="-949.523px" style="font-family:'HelveticaNeue', 'Helvetica Neue';font-size:20px;fill:rgb(153,153,153);">iOS 5-10</text>
            <text x="1472.03px" y="-928.963px" style="font-family:'HelveticaNeue', 'Helvetica Neue';font-size:20px;fill:rgb(153,153,153);">29pt</text>
        </g>
        <g transform="matrix(1,0,0,1,680.819,1354.36)">
            <text x="1472.03px" y="-970.083px" style="font-family:'HelveticaNeue', 'Helvetica Neue';font-size:20px;fill:rgb(153,153,153);">iPhone App</text>
            <text x="1472.03px" y="-949.523px" style="font-family:'HelveticaNeue', 'Helvetica Neue';font-size:20px;fill:rgb(153,153,153);">iOS 7-10</text>
            <text x="1472.03px" y="-928.963px" style="font-family:'HelveticaNeue', 'Helvetica Neue';font-size:20px;fill:rgb(153,153,153);">60pt</text>
        </g>
        <g transform="matrix(1,0,0,1,365.97,1354.36)">
            <text x="1472.03px" y="-970.083px" style="font-family:'HelveticaNeue', 'Helvetica Neue';font-size:20px;fill:rgb(153,153,153);">iPhone App</text>
            <text x="1472.03px" y="-949.523px" style="font-family:'HelveticaNeue', 'Helvetica Neue';font-size:20px;fill:rgb(153,153,153);">iOS 5,6</text>
            <text x="1472.03px" y="-928.963px" style="font-family:'HelveticaNeue', 'Helvetica Neue';font-size:20px;fill:rgb(153,153,153);">57pt</text>
        </g>
        <g transform="matrix(1,0,0,1,35.9697,1354.36)">
            <text x="1472.03px" y="-970.083px" style="font-family:'HelveticaNeue', 'Helvetica Neue';font-size:20px;fill:rgb(153,153,153);">iPhone Spotlight</text>
            <text x="1472.03px" y="-949.523px" style="font-family:'HelveticaNeue', 'Helvetica Neue';font-size:20px;fill:rgb(153,153,153);">iOS 7-10</text>
            <text x="1472.03px" y="-928.963px" style="font-family:'HelveticaNeue', 'Helvetica Neue';font-size:20px;fill:rgb(153,153,153);">40pt</text>
        </g>
        <g transform="matrix(1,0,0,1,-298.03,1354.36)">
            <text x="1472.03px" y="-970.083px" style="font-family:'HelveticaNeue', 'Helvetica Neue';font-size:20px;fill:rgb(153,153,153);">iPhone</text>
            <text x="1472.03px" y="-949.523px" style="font-family:'HelveticaNeue', 'Helvetica Neue';font-size:20px;fill:rgb(153,153,153);">Spotlight - iOS 5,6</text>
            <text x="1472.03px" y="-928.963px" style="font-family:'HelveticaNeue', 'Helvetica Neue';font-size:20px;fill:rgb(153,153,153);">Settings - iOS 5-10</text>
            <text x="1472.03px" y="-908.403px" style="font-family:'HelveticaNeue', 'Helvetica Neue';font-size:20px;fill:rgb(153,153,153);">29pt</text>
        </g>
        <g transform="matrix(1,0,0,1,-1422.03,2152.89)">
            <text x="1472.03px" y="-970.083px" style="font-family:'HelveticaNeue-Light', 'Helvetica Neue';font-weight:300;font-size:36px;fill:rgb(153,153,153);">iOS App Icon T<tspan x="1704.12px 1722.81px " y="-970.083px -970.083px ">em</tspan>plate</text>
            <text x="1472.03px" y="-934.083px" style="font-family:'HelveticaNeue', 'Helvetica Neue';font-size:24px;fill:rgb(153,153,153);">V<tspan x="1486.26px 1491.59px " y="-934.083px -934.083px ">is</tspan>it</text>
            <text x="1523.15px" y="-934.083px" style="font-family:'HelveticaNeue-Bold', 'Helvetica Neue';font-weight:700;font-size:24px;fill:rgb(153,153,153);">stevenwestmor<tspan x="1698.71px 1712.49px " y="-934.083px -934.083px ">el</tspan>and.com/appicontemplate/</text>
            <text x="2035.48px" y="-934.083px" style="font-family:'HelveticaNeue', 'Helvetica Neue';font-size:24px;fill:rgb(153,153,153);">for instructions and updates.</text>
        </g>
    </g>
    <g id="Icons-for-Universal-Applications" serif:id="Icons for Universal Applications" transform="matrix(1,0,0,1,0,1024)">
        <g transform="matrix(0.0116,0,0,0.0116,1174,-775)">
            <g id="Icon">
                <g>
                    <rect x="0" y="0" width="2500" height="2500" style="fill:white;"/>
                    <g id="Symbol" transform="matrix(8.48577,0,0,8.48577,-4941.49,-3467.92)">
                        <path d="M729.632,443.439C661.601,443.44 606.45,498.709 606.45,566.889C606.45,601.081 620.324,632.019 642.735,654.374C644.173,655.808 646.634,655.468 647.616,653.69C658.112,634.678 676.52,619.816 698.976,612.576C684.327,602.687 674.688,585.911 674.688,566.878C674.688,536.468 699.287,511.816 729.632,511.815C759.977,511.816 784.576,536.468 784.576,566.878C784.576,585.911 774.937,602.687 760.287,612.576C782.744,619.816 801.151,634.678 811.648,653.69C812.629,655.468 815.091,655.808 816.529,654.374C838.939,632.019 852.814,601.081 852.814,566.889C852.814,498.709 797.662,443.44 729.632,443.439Z" style="fill:url(#_Linear1);"/>
                    </g>
                </g>
            </g>
        </g>
        <g transform="matrix(0.0232,0,0,0.0232,1233,-804)">
            <g id="Icon1" serif:id="Icon">
                <g>
                    <rect x="0" y="0" width="2500" height="2500" style="fill:white;"/>
                    <g id="Symbol1" serif:id="Symbol" transform="matrix(8.48577,0,0,8.48577,-4941.49,-3467.92)">
                        <path d="M729.632,443.439C661.601,443.44 606.45,498.709 606.45,566.889C606.45,601.081 620.324,632.019 642.735,654.374C644.173,655.808 646.634,655.468 647.616,653.69C658.112,634.678 676.52,619.816 698.976,612.576C684.327,602.687 674.688,585.911 674.688,566.878C674.688,536.468 699.287,511.816 729.632,511.815C759.977,511.816 784.576,536.468 784.576,566.878C784.576,585.911 774.937,602.687 760.287,612.576C782.744,619.816 801.151,634.678 811.648,653.69C812.629,655.468 815.091,655.808 816.529,654.374C838.939,632.019 852.814,601.081 852.814,566.889C852.814,498.709 797.662,443.44 729.632,443.439Z" style="fill:url(#_Linear2);"/>
                    </g>
                </g>
            </g>
        </g>
        <g transform="matrix(0.0348,0,0,0.0348,1321,-833)">
            <g id="Icon2" serif:id="Icon">
                <g>
                    <rect x="0" y="0" width="2500" height="2500" style="fill:white;"/>
                    <g id="Symbol2" serif:id="Symbol" transform="matrix(8.48577,0,0,8.48577,-4941.49,-3467.92)">
                        <path d="M729.632,443.439C661.601,443.44 606.45,498.709 606.45,566.889C606.45,601.081 620.324,632.019 642.735,654.374C644.173,655.808 646.634,655.468 647.616,653.69C658.112,634.678 676.52,619.816 698.976,612.576C684.327,602.687 674.688,585.911 674.688,566.878C674.688,536.468 699.287,511.816 729.632,511.815C759.977,511.816 784.576,536.468 784.576,566.878C784.576,585.911 774.937,602.687 760.287,612.576C782.744,619.816 801.151,634.678 811.648,653.69C812.629,655.468 815.091,655.808 816.529,654.374C838.939,632.019 852.814,601.081 852.814,566.889C852.814,498.709 797.662,443.44 729.632,443.439Z" style="fill:url(#_Linear3);"/>
                    </g>
                </g>
            </g>
        </g>
        <g transform="matrix(0.032,0,0,0.032,1508,-826)">
            <g id="Icon3" serif:id="Icon">
                <g>
                    <rect x="0" y="0" width="2500" height="2500" style="fill:white;"/>
                    <g id="Symbol3" serif:id="Symbol" transform="matrix(8.48577,0,0,8.48577,-4941.49,-3467.92)">
                        <path d="M729.632,443.439C661.601,443.44 606.45,498.709 606.45,566.889C606.45,601.081 620.324,632.019 642.735,654.374C644.173,655.808 646.634,655.468 647.616,653.69C658.112,634.678 676.52,619.816 698.976,612.576C684.327,602.687 674.688,585.911 674.688,566.878C674.688,536.468 699.287,511.816 729.632,511.815C759.977,511.816 784.576,536.468 784.576,566.878C784.576,585.911 774.937,602.687 760.287,612.576C782.744,619.816 801.151,634.678 811.648,653.69C812.629,655.468 815.091,655.808 816.529,654.374C838.939,632.019 852.814,601.081 852.814,566.889C852.814,498.709 797.662,443.44 729.632,443.439Z" style="fill:url(#_Linear4);"/>
                    </g>
                </g>
            </g>
        </g>
        <g transform="matrix(0.048,0,0,0.048,1618,-864)">
            <g id="Icon4" serif:id="Icon">
                <g>
                    <rect x="0" y="0" width="2500" height="2500" style="fill:white;"/>
                    <g id="Symbol4" serif:id="Symbol" transform="matrix(8.48577,0,0,8.48577,-4941.49,-3467.92)">
                        <path d="M729.632,443.439C661.601,443.44 606.45,498.709 606.45,566.889C606.45,601.081 620.324,632.019 642.735,654.374C644.173,655.808 646.634,655.468 647.616,653.69C658.112,634.678 676.52,619.816 698.976,612.576C684.327,602.687 674.688,585.911 674.688,566.878C674.688,536.468 699.287,511.816 729.632,511.815C759.977,511.816 784.576,536.468 784.576,566.878C784.576,585.911 774.937,602.687 760.287,612.576C782.744,619.816 801.151,634.678 811.648,653.69C812.629,655.468 815.091,655.808 816.529,654.374C838.939,632.019 852.814,601.081 852.814,566.889C852.814,498.709 797.662,443.44 729.632,443.439Z" style="fill:url(#_Linear5);"/>
                    </g>
                </g>
            </g>
        </g>
        <g transform="matrix(0.0228,0,0,0.0228,1838,-801)">
            <g id="Icon5" serif:id="Icon">
                <g>
                    <rect x="0" y="0" width="2500" height="2500" style="fill:white;"/>
                    <g id="Symbol5" serif:id="Symbol" transform="matrix(8.48577,0,0,8.48577,-4941.49,-3467.92)">
                        <path d="M729.632,443.439C661.601,443.44 606.45,498.709 606.45,566.889C606.45,601.081 620.324,632.019 642.735,654.374C644.173,655.808 646.634,655.468 647.616,653.69C658.112,634.678 676.52,619.816 698.976,612.576C684.327,602.687 674.688,585.911 674.688,566.878C674.688,536.468 699.287,511.816 729.632,511.815C759.977,511.816 784.576,536.468 784.576,566.878C784.576,585.911 774.937,602.687 760.287,612.576C782.744,619.816 801.151,634.678 811.648,653.69C812.629,655.468 815.091,655.808 816.529,654.374C838.939,632.019 852.814,601.081 852.814,566.889C852.814,498.709 797.662,443.44 729.632,443.439Z" style="fill:url(#_Linear6);"/>
                    </g>
                </g>
            </g>
        </g>
        <g transform="matrix(0.0456,0,0,0.0456,1925,-858)">
            <g id="Icon6" serif:id="Icon">
                <g>
                    <rect x="0" y="0" width="2500" height="2500" style="fill:white;"/>
                    <g id="Symbol6" serif:id="Symbol" transform="matrix(8.48577,0,0,8.48577,-4941.49,-3467.92)">
                        <path d="M729.632,443.439C661.601,443.44 606.45,498.709 606.45,566.889C606.45,601.081 620.324,632.019 642.735,654.374C644.173,655.808 646.634,655.468 647.616,653.69C658.112,634.678 676.52,619.816 698.976,612.576C684.327,602.687 674.688,585.911 674.688,566.878C674.688,536.468 699.287,511.816 729.632,511.815C759.977,511.816 784.576,536.468 784.576,566.878C784.576,585.911 774.937,602.687 760.287,612.576C782.744,619.816 801.151,634.678 811.648,653.69C812.629,655.468 815.091,655.808 816.529,654.374C838.939,632.019 852.814,601.081 852.814,566.889C852.814,498.709 797.662,443.44 729.632,443.439Z" style="fill:url(#_Linear7);"/>
                    </g>
                </g>
            </g>
        </g>
        <g transform="matrix(0.048,0,0,0.048,2139,-864)">
            <g id="Icon7" serif:id="Icon">
                <g>
                    <rect x="0" y="0" width="2500" height="2500" style="fill:white;"/>
                    <g id="Symbol7" serif:id="Symbol" transform="matrix(8.48577,0,0,8.48577,-4941.49,-3467.92)">
                        <path d="M729.632,443.439C661.601,443.44 606.45,498.709 606.45,566.889C606.45,601.081 620.324,632.019 642.735,654.374C644.173,655.808 646.634,655.468 647.616,653.69C658.112,634.678 676.52,619.816 698.976,612.576C684.327,602.687 674.688,585.911 674.688,566.878C674.688,536.468 699.287,511.816 729.632,511.815C759.977,511.816 784.576,536.468 784.576,566.878C784.576,585.911 774.937,602.687 760.287,612.576C782.744,619.816 801.151,634.678 811.648,653.69C812.629,655.468 815.091,655.808 816.529,654.374C838.939,632.019 852.814,601.081 852.814,566.889C852.814,498.709 797.662,443.44 729.632,443.439Z" style="fill:url(#_Linear8);"/>
                    </g>
                </g>
            </g>
        </g>
        <g transform="matrix(0.072,0,0,0.072,2309,-924)">
            <g id="Icon8" serif:id="Icon">
                <g>
                    <rect x="0" y="0" width="2500" height="2500" style="fill:white;"/>
                    <g id="Symbol8" serif:id="Symbol" transform="matrix(8.48577,0,0,8.48577,-4941.49,-3467.92)">
                        <path d="M729.632,443.439C661.601,443.44 606.45,498.709 606.45,566.889C606.45,601.081 620.324,632.019 642.735,654.374C644.173,655.808 646.634,655.468 647.616,653.69C658.112,634.678 676.52,619.816 698.976,612.576C684.327,602.687 674.688,585.911 674.688,566.878C674.688,536.468 699.287,511.816 729.632,511.815C759.977,511.816 784.576,536.468 784.576,566.878C784.576,585.911 774.937,602.687 760.287,612.576C782.744,619.816 801.151,634.678 811.648,653.69C812.629,655.468 815.091,655.808 816.529,654.374C838.939,632.019 852.814,601.081 852.814,566.889C852.814,498.709 797.662,443.44 729.632,443.439Z" style="fill:url(#_Linear9);"/>
                    </g>
                </g>
            </g>
        </g>
        <g transform="matrix(0.0116,0,0,0.0116,1174,-237.99)">
            <g id="Icon9" serif:id="Icon">
                <g>
                    <rect x="0" y="0" width="2500" height="2500" style="fill:white;"/>
                    <g id="Symbol9" serif:id="Symbol" transform="matrix(8.48577,0,0,8.48577,-4941.49,-3467.92)">
                        <path d="M729.632,443.439C661.601,443.44 606.45,498.709 606.45,566.889C606.45,601.081 620.324,632.019 642.735,654.374C644.173,655.808 646.634,655.468 647.616,653.69C658.112,634.678 676.52,619.816 698.976,612.576C684.327,602.687 674.688,585.911 674.688,566.878C674.688,536.468 699.287,511.816 729.632,511.815C759.977,511.816 784.576,536.468 784.576,566.878C784.576,585.911 774.937,602.687 760.287,612.576C782.744,619.816 801.151,634.678 811.648,653.69C812.629,655.468 815.091,655.808 816.529,654.374C838.939,632.019 852.814,601.081 852.814,566.889C852.814,498.709 797.662,443.44 729.632,443.439Z" style="fill:url(#_Linear10);"/>
                    </g>
                </g>
            </g>
        </g>
        <g transform="matrix(0.0232,0,0,0.0232,1233,-266.99)">
            <g id="Icon10" serif:id="Icon">
                <g>
                    <rect x="0" y="0" width="2500" height="2500" style="fill:white;"/>
                    <g id="Symbol10" serif:id="Symbol" transform="matrix(8.48577,0,0,8.48577,-4941.49,-3467.92)">
                        <path d="M729.632,443.439C661.601,443.44 606.45,498.709 606.45,566.889C606.45,601.081 620.324,632.019 642.735,654.374C644.173,655.808 646.634,655.468 647.616,653.69C658.112,634.678 676.52,619.816 698.976,612.576C684.327,602.687 674.688,585.911 674.688,566.878C674.688,536.468 699.287,511.816 729.632,511.815C759.977,511.816 784.576,536.468 784.576,566.878C784.576,585.911 774.937,602.687 760.287,612.576C782.744,619.816 801.151,634.678 811.648,653.69C812.629,655.468 815.091,655.808 816.529,654.374C838.939,632.019 852.814,601.081 852.814,566.889C852.814,498.709 797.662,443.44 729.632,443.439Z" style="fill:url(#_Linear11);"/>
                    </g>
                </g>
            </g>
        </g>
        <g transform="matrix(0.016,0,0,0.016,1391,-248.99)">
            <g id="Icon11" serif:id="Icon">
                <g>
                    <rect x="0" y="0" width="2500" height="2500" style="fill:white;"/>
                    <g id="Symbol11" serif:id="Symbol" transform="matrix(8.48577,0,0,8.48577,-4941.49,-3467.92)">
                        <path d="M729.632,443.439C661.601,443.44 606.45,498.709 606.45,566.889C606.45,601.081 620.324,632.019 642.735,654.374C644.173,655.808 646.634,655.468 647.616,653.69C658.112,634.678 676.52,619.816 698.976,612.576C684.327,602.687 674.688,585.911 674.688,566.878C674.688,536.468 699.287,511.816 729.632,511.815C759.977,511.816 784.576,536.468 784.576,566.878C784.576,585.911 774.937,602.687 760.287,612.576C782.744,619.816 801.151,634.678 811.648,653.69C812.629,655.468 815.091,655.808 816.529,654.374C838.939,632.019 852.814,601.081 852.814,566.889C852.814,498.709 797.662,443.44 729.632,443.439Z" style="fill:url(#_Linear12);"/>
                    </g>
                </g>
            </g>
        </g>
        <g transform="matrix(0.032,0,0,0.032,1461,-288.99)">
            <g id="Icon12" serif:id="Icon">
                <g>
                    <rect x="0" y="0" width="2500" height="2500" style="fill:white;"/>
                    <g id="Symbol12" serif:id="Symbol" transform="matrix(8.48577,0,0,8.48577,-4941.49,-3467.92)">
                        <path d="M729.632,443.439C661.601,443.44 606.45,498.709 606.45,566.889C606.45,601.081 620.324,632.019 642.735,654.374C644.173,655.808 646.634,655.468 647.616,653.69C658.112,634.678 676.52,619.816 698.976,612.576C684.327,602.687 674.688,585.911 674.688,566.878C674.688,536.468 699.287,511.816 729.632,511.815C759.977,511.816 784.576,536.468 784.576,566.878C784.576,585.911 774.937,602.687 760.287,612.576C782.744,619.816 801.151,634.678 811.648,653.69C812.629,655.468 815.091,655.808 816.529,654.374C838.939,632.019 852.814,601.081 852.814,566.889C852.814,498.709 797.662,443.44 729.632,443.439Z" style="fill:url(#_Linear13);"/>
                    </g>
                </g>
            </g>
        </g>
        <g transform="matrix(0.02,0,0,0.02,1641,-258.99)">
            <g id="Icon13" serif:id="Icon">
                <g>
                    <rect x="0" y="0" width="2500" height="2500" style="fill:white;"/>
                    <g id="Symbol13" serif:id="Symbol" transform="matrix(8.48577,0,0,8.48577,-4941.49,-3467.92)">
                        <path d="M729.632,443.439C661.601,443.44 606.45,498.709 606.45,566.889C606.45,601.081 620.324,632.019 642.735,654.374C644.173,655.808 646.634,655.468 647.616,653.69C658.112,634.678 676.52,619.816 698.976,612.576C684.327,602.687 674.688,585.911 674.688,566.878C674.688,536.468 699.287,511.816 729.632,511.815C759.977,511.816 784.576,536.468 784.576,566.878C784.576,585.911 774.937,602.687 760.287,612.576C782.744,619.816 801.151,634.678 811.648,653.69C812.629,655.468 815.091,655.808 816.529,654.374C838.939,632.019 852.814,601.081 852.814,566.889C852.814,498.709 797.662,443.44 729.632,443.439Z" style="fill:url(#_Linear14);"/>
                    </g>
                </g>
            </g>
        </g>
        <g transform="matrix(0.04,0,0,0.04,1721,-308.99)">
            <g id="Icon14" serif:id="Icon">
                <g>
                    <rect x="0" y="0" width="2500" height="2500" style="fill:white;"/>
                    <g id="Symbol14" serif:id="Symbol" transform="matrix(8.48577,0,0,8.48577,-4941.49,-3467.92)">
                        <path d="M729.632,443.439C661.601,443.44 606.45,498.709 606.45,566.889C606.45,601.081 620.324,632.019 642.735,654.374C644.173,655.808 646.634,655.468 647.616,653.69C658.112,634.678 676.52,619.816 698.976,612.576C684.327,602.687 674.688,585.911 674.688,566.878C674.688,536.468 699.287,511.816 729.632,511.815C759.977,511.816 784.576,536.468 784.576,566.878C784.576,585.911 774.937,602.687 760.287,612.576C782.744,619.816 801.151,634.678 811.648,653.69C812.629,655.468 815.091,655.808 816.529,654.374C838.939,632.019 852.814,601.081 852.814,566.889C852.814,498.709 797.662,443.44 729.632,443.439Z" style="fill:url(#_Linear15);"/>
                    </g>
                </g>
            </g>
        </g>
        <g transform="matrix(0.0288,0,0,0.0288,1921,-280.99)">
            <g id="Icon15" serif:id="Icon">
                <g>
                    <rect x="0" y="0" width="2500" height="2500" style="fill:white;"/>
                    <g id="Symbol15" serif:id="Symbol" transform="matrix(8.48577,0,0,8.48577,-4941.49,-3467.92)">
                        <path d="M729.632,443.439C661.601,443.44 606.45,498.709 606.45,566.889C606.45,601.081 620.324,632.019 642.735,654.374C644.173,655.808 646.634,655.468 647.616,653.69C658.112,634.678 676.52,619.816 698.976,612.576C684.327,602.687 674.688,585.911 674.688,566.878C674.688,536.468 699.287,511.816 729.632,511.815C759.977,511.816 784.576,536.468 784.576,566.878C784.576,585.911 774.937,602.687 760.287,612.576C782.744,619.816 801.151,634.678 811.648,653.69C812.629,655.468 815.091,655.808 816.529,654.374C838.939,632.019 852.814,601.081 852.814,566.889C852.814,498.709 797.662,443.44 729.632,443.439Z" style="fill:url(#_Linear16);"/>
                    </g>
                </g>
            </g>
        </g>
        <g transform="matrix(0.0576,0,0,0.0576,2023,-352.99)">
            <g id="Icon16" serif:id="Icon">
                <g>
                    <rect x="0" y="0" width="2500" height="2500" style="fill:white;"/>
                    <g id="Symbol16" serif:id="Symbol" transform="matrix(8.48577,0,0,8.48577,-4941.49,-3467.92)">
                        <path d="M729.632,443.439C661.601,443.44 606.45,498.709 606.45,566.889C606.45,601.081 620.324,632.019 642.735,654.374C644.173,655.808 646.634,655.468 647.616,653.69C658.112,634.678 676.52,619.816 698.976,612.576C684.327,602.687 674.688,585.911 674.688,566.878C674.688,536.468 699.287,511.816 729.632,511.815C759.977,511.816 784.576,536.468 784.576,566.878C784.576,585.911 774.937,602.687 760.287,612.576C782.744,619.816 801.151,634.678 811.648,653.69C812.629,655.468 815.091,655.808 816.529,654.374C838.939,632.019 852.814,601.081 852.814,566.889C852.814,498.709 797.662,443.44 729.632,443.439Z" style="fill:url(#_Linear17);"/>
                    </g>
                </g>
            </g>
        </g>
        <g transform="matrix(0.0304,0,0,0.0304,2266.98,-285)">
            <g id="Icon17" serif:id="Icon">
                <g>
                    <rect x="0" y="0" width="2500" height="2500" style="fill:white;"/>
                    <g id="Symbol17" serif:id="Symbol" transform="matrix(8.48577,0,0,8.48577,-4941.49,-3467.92)">
                        <path d="M729.632,443.439C661.601,443.44 606.45,498.709 606.45,566.889C606.45,601.081 620.324,632.019 642.735,654.374C644.173,655.808 646.634,655.468 647.616,653.69C658.112,634.678 676.52,619.816 698.976,612.576C684.327,602.687 674.688,585.911 674.688,566.878C674.688,536.468 699.287,511.816 729.632,511.815C759.977,511.816 784.576,536.468 784.576,566.878C784.576,585.911 774.937,602.687 760.287,612.576C782.744,619.816 801.151,634.678 811.648,653.69C812.629,655.468 815.091,655.808 816.529,654.374C838.939,632.019 852.814,601.081 852.814,566.889C852.814,498.709 797.662,443.44 729.632,443.439Z" style="fill:url(#_Linear18);"/>
                    </g>
                </g>
            </g>
        </g>
        <g transform="matrix(0.0608,0,0,0.0608,2372.98,-361)">
            <g id="Icon18" serif:id="Icon">
                <g>
                    <rect x="0" y="0" width="2500" height="2500" style="fill:white;"/>
                    <g id="Symbol18" serif:id="Symbol" transform="matrix(8.48577,0,0,8.48577,-4941.49,-3467.92)">
                        <path d="M729.632,443.439C661.601,443.44 606.45,498.709 606.45,566.889C606.45,601.081 620.324,632.019 642.735,654.374C644.173,655.808 646.634,655.468 647.616,653.69C658.112,634.678 676.52,619.816 698.976,612.576C684.327,602.687 674.688,585.911 674.688,566.878C674.688,536.468 699.287,511.816 729.632,511.815C759.977,511.816 784.576,536.468 784.576,566.878C784.576,585.911 774.937,602.687 760.287,612.576C782.744,619.816 801.151,634.678 811.648,653.69C812.629,655.468 815.091,655.808 816.529,654.374C838.939,632.019 852.814,601.081 852.814,566.889C852.814,498.709 797.662,443.44 729.632,443.439Z" style="fill:url(#_Linear19);"/>
                    </g>
                </g>
            </g>
        </g>
        <g transform="matrix(0.0668,0,0,0.0668,2625,-376)">
            <g id="Icon19" serif:id="Icon">
                <g>
                    <rect x="0" y="0" width="2500" height="2500" style="fill:white;"/>
                    <g id="Symbol19" serif:id="Symbol" transform="matrix(8.48577,0,0,8.48577,-4941.49,-3467.92)">
                        <path d="M729.632,443.439C661.601,443.44 606.45,498.709 606.45,566.889C606.45,601.081 620.324,632.019 642.735,654.374C644.173,655.808 646.634,655.468 647.616,653.69C658.112,634.678 676.52,619.816 698.976,612.576C684.327,602.687 674.688,585.911 674.688,566.878C674.688,536.468 699.287,511.816 729.632,511.815C759.977,511.816 784.576,536.468 784.576,566.878C784.576,585.911 774.937,602.687 760.287,612.576C782.744,619.816 801.151,634.678 811.648,653.69C812.629,655.468 815.091,655.808 816.529,654.374C838.939,632.019 852.814,601.081 852.814,566.889C852.814,498.709 797.662,443.44 729.632,443.439Z" style="fill:url(#_Linear20);"/>
                    </g>
                </g>
            </g>
        </g>
    </g>
    <g transform="matrix(0.4096,0,0,0.4096,50,50)">
        <g id="App-Icon" serif:id="App Icon">
            <g id="Icon20" serif:id="Icon">
                <g>
                    <rect x="0" y="0" width="2500" height="2500" style="fill:white;"/>
                    <g id="Symbol20" serif:id="Symbol" transform="matrix(8.48577,0,0,8.48577,-4941.49,-3467.92)">
                        <path d="M729.632,443.439C661.601,443.44 606.45,498.709 606.45,566.889C606.45,601.081 620.324,632.019 642.735,654.374C644.173,655.808 646.634,655.468 647.616,653.69C658.112,634.678 676.52,619.816 698.976,612.576C684.327,602.687 674.688,585.911 674.688,566.878C674.688,536.468 699.287,511.816 729.632,511.815C759.977,511.816 784.576,536.468 784.576,566.878C784.576,585.911 774.937,602.687 760.287,612.576C782.744,619.816 801.151,634.678 811.648,653.69C812.629,655.468 815.091,655.808 816.529,654.374C838.939,632.019 852.814,601.081 852.814,566.889C852.814,498.709 797.662,443.44 729.632,443.439Z" style="fill:url(#_Linear21);"/>
                    </g>
                </g>
            </g>
        </g>
    </g>
    <g id="Grid">
        <g opacity="0.1">
            <g>
                <path d="M1074,50L50,1074" style="fill:none;stroke:black;stroke-width:5px;"/>
                <path d="M50,50L1074,1074" style="fill:none;stroke:black;stroke-width:5px;"/>
            </g>
            <g>
                <g transform="matrix(1,0,0,1,459.357,0)">
                    <path d="M562,50L562,1074" style="fill:none;stroke:black;stroke-width:5px;"/>
                </g>
                <g transform="matrix(1,0,0,1,170.667,0)">
                    <path d="M562,50L562,1074" style="fill:none;stroke:black;stroke-width:5px;"/>
                </g>
                <path d="M562,50L562,1074" style="fill:none;stroke:black;stroke-width:5px;"/>
                <g transform="matrix(1,0,0,1,-170.667,0)">
                    <path d="M562,50L562,1074" style="fill:none;stroke:black;stroke-width:5px;"/>
                </g>
                <g transform="matrix(1,0,0,1,-459.357,0)">
                    <path d="M562,50L562,1074" style="fill:none;stroke:black;stroke-width:5px;"/>
                </g>
            </g>
            <g>
                <g transform="matrix(1,0,0,1,0,459.357)">
                    <path d="M50,562L1074,562" style="fill:none;stroke:black;stroke-width:5px;"/>
                </g>
                <g transform="matrix(1,0,0,1,0,170.667)">
                    <path d="M50,562L1074,562" style="fill:none;stroke:black;stroke-width:5px;"/>
                </g>
                <path d="M50,562L1074,562" style="fill:none;stroke:black;stroke-width:5px;"/>
                <g transform="matrix(1,0,0,1,0,-170.667)">
                    <path d="M50,562L1074,562" style="fill:none;stroke:black;stroke-width:5px;"/>
                </g>
                <g transform="matrix(1,0,0,1,0,-459.357)">
                    <path d="M50,562L1074,562" style="fill:none;stroke:black;stroke-width:5px;"/>
                </g>
            </g>
            <g>
                <g transform="matrix(2.83554,0,0,2.98284,-1034.41,-1150.15)">
                    <ellipse cx="563" cy="574" rx="162" ry="154" style="fill:none;stroke:black;stroke-width:1.72px;"/>
                </g>
                <g transform="matrix(1.49167,0,0,1.56916,-277.808,-338.695)">
                    <ellipse cx="563" cy="574" rx="162" ry="154" style="fill:none;stroke:black;stroke-width:3.27px;"/>
                </g>
                <g transform="matrix(1.0535,0,0,1.10823,-31.1193,-74.1212)">
                    <ellipse cx="563" cy="574" rx="162" ry="154" style="fill:none;stroke:black;stroke-width:4.62px;"/>
                </g>
            </g>
        </g>
    </g>
    <defs>
        <linearGradient id="_Linear1" x1="0" y1="0" x2="1" y2="0" gradientUnits="userSpaceOnUse" gradientTransform="matrix(107.632,-294.611,294.611,107.632,667.162,703.286)"><stop offset="0" style="stop-color:rgb(148,148,148);stop-opacity:1"/><stop offset="0.57" style="stop-color:rgb(158,158,158);stop-opacity:1"/><stop offset="0.79" style="stop-color:rgb(179,179,179);stop-opacity:1"/><stop offset="1" style="stop-color:rgb(198,198,198);stop-opacity:1"/></linearGradient>
        <linearGradient id="_Linear2" x1="0" y1="0" x2="1" y2="0" gradientUnits="userSpaceOnUse" gradientTransform="matrix(107.632,-294.611,294.611,107.632,667.162,703.286)"><stop offset="0" style="stop-color:rgb(148,148,148);stop-opacity:1"/><stop offset="0.57" style="stop-color:rgb(158,158,158);stop-opacity:1"/><stop offset="0.79" style="stop-color:rgb(179,179,179);stop-opacity:1"/><stop offset="1" style="stop-color:rgb(198,198,198);stop-opacity:1"/></linearGradient>
        <linearGradient id="_Linear3" x1="0" y1="0" x2="1" y2="0" gradientUnits="userSpaceOnUse" gradientTransform="matrix(107.632,-294.611,294.611,107.632,667.162,703.286)"><stop offset="0" style="stop-color:rgb(148,148,148);stop-opacity:1"/><stop offset="0.57" style="stop-color:rgb(158,158,158);stop-opacity:1"/><stop offset="0.79" style="stop-color:rgb(179,179,179);stop-opacity:1"/><stop offset="1" style="stop-color:rgb(198,198,198);stop-opacity:1"/></linearGradient>
        <linearGradient id="_Linear4" x1="0" y1="0" x2="1" y2="0" gradientUnits="userSpaceOnUse" gradientTransform="matrix(107.632,-294.611,294.611,107.632,667.162,703.286)"><stop offset="0" style="stop-color:rgb(148,148,148);stop-opacity:1"/><stop offset="0.57" style="stop-color:rgb(158,158,158);stop-opacity:1"/><stop offset="0.79" style="stop-color:rgb(179,179,179);stop-opacity:1"/><stop offset="1" style="stop-color:rgb(198,198,198);stop-opacity:1"/></linearGradient>
        <linearGradient id="_Linear5" x1="0" y1="0" x2="1" y2="0" gradientUnits="userSpaceOnUse" gradientTransform="matrix(107.632,-294.611,294.611,107.632,667.162,703.286)"><stop offset="0" style="stop-color:rgb(148,148,148);stop-opacity:1"/><stop offset="0.57" style="stop-color:rgb(158,158,158);stop-opacity:1"/><stop offset="0.79" style="stop-color:rgb(179,179,179);stop-opacity:1"/><stop offset="1" style="stop-color:rgb(198,198,198);stop-opacity:1"/></linearGradient>
        <linearGradient id="_Linear6" x1="0" y1="0" x2="1" y2="0" gradientUnits="userSpaceOnUse" gradientTransform="matrix(107.632,-294.611,294.611,107.632,667.162,703.286)"><stop offset="0" style="stop-color:rgb(148,148,148);stop-opacity:1"/><stop offset="0.57" style="stop-color:rgb(158,158,158);stop-opacity:1"/><stop offset="0.79" style="stop-color:rgb(179,179,179);stop-opacity:1"/><stop offset="1" style="stop-color:rgb(198,198,198);stop-opacity:1"/></linearGradient>
        <linearGradient id="_Linear7" x1="0" y1="0" x2="1" y2="0" gradientUnits="userSpaceOnUse" gradientTransform="matrix(107.632,-294.611,294.611,107.632,667.162,703.286)"><stop offset="0" style="stop-color:rgb(148,148,148);stop-opacity:1"/><stop offset="0.57" style="stop-color:rgb(158,158,158);stop-opacity:1"/><stop offset="0.79" style="stop-color:rgb(179,179,179);stop-opacity:1"/><stop offset="1" style="stop-color:rgb(198,198,198);stop-opacity:1"/></linearGradient>
        <linearGradient id="_Linear8" x1="0" y1="0" x2="1" y2="0" gradientUnits="userSpaceOnUse" gradientTransform="matrix(107.632,-294.611,294.611,107.632,667.162,703.286)"><stop offset="0" style="stop-color:rgb(148,148,148);stop-opacity:1"/><stop offset="0.57" style="stop-color:rgb(158,158,158);stop-opacity:1"/><stop offset="0.79" style="stop-color:rgb(179,179,179);stop-opacity:1"/><stop offset="1" style="stop-color:rgb(198,198,198);stop-opacity:1"/></linearGradient>
        <linearGradient id="_Linear9" x1="0" y1="0" x2="1" y2="0" gradientUnits="userSpaceOnUse" gradientTransform="matrix(107.632,-294.611,294.611,107.632,667.162,703.286)"><stop offset="0" style="stop-color:rgb(148,148,148);stop-opacity:1"/><stop offset="0.57" style="stop-color:rgb(158,158,158);stop-opacity:1"/><stop offset="0.79" style="stop-color:rgb(179,179,179);stop-opacity:1"/><stop offset="1" style="stop-color:rgb(198,198,198);stop-opacity:1"/></linearGradient>
        <linearGradient id="_Linear10" x1="0" y1="0" x2="1" y2="0" gradientUnits="userSpaceOnUse" gradientTransform="matrix(107.632,-294.611,294.611,107.632,667.162,703.286)"><stop offset="0" style="stop-color:rgb(148,148,148);stop-opacity:1"/><stop offset="0.57" style="stop-color:rgb(158,158,158);stop-opacity:1"/><stop offset="0.79" style="stop-color:rgb(179,179,179);stop-opacity:1"/><stop offset="1" style="stop-color:rgb(198,198,198);stop-opacity:1"/></linearGradient>
        <linearGradient id="_Linear11" x1="0" y1="0" x2="1" y2="0" gradientUnits="userSpaceOnUse" gradientTransform="matrix(107.632,-294.611,294.611,107.632,667.162,703.286)"><stop offset="0" style="stop-color:rgb(148,148,148);stop-opacity:1"/><stop offset="0.57" style="stop-color:rgb(158,158,158);stop-opacity:1"/><stop offset="0.79" style="stop-color:rgb(179,179,179);stop-opacity:1"/><stop offset="1" style="stop-color:rgb(198,198,198);stop-opacity:1"/></linearGradient>
        <linearGradient id="_Linear12" x1="0" y1="0" x2="1" y2="0" gradientUnits="userSpaceOnUse" gradientTransform="matrix(107.632,-294.611,294.611,107.632,667.162,703.286)"><stop offset="0" style="stop-color:rgb(148,148,148);stop-opacity:1"/><stop offset="0.57" style="stop-color:rgb(158,158,158);stop-opacity:1"/><stop offset="0.79" style="stop-color:rgb(179,179,179);stop-opacity:1"/><stop offset="1" style="stop-color:rgb(198,198,198);stop-opacity:1"/></linearGradient>
        <linearGradient id="_Linear13" x1="0" y1="0" x2="1" y2="0" gradientUnits="userSpaceOnUse" gradientTransform="matrix(107.632,-294.611,294.611,107.632,667.162,703.286)"><stop offset="0" style="stop-color:rgb(148,148,148);stop-opacity:1"/><stop offset="0.57" style="stop-color:rgb(158,158,158);stop-opacity:1"/><stop offset="0.79" style="stop-color:rgb(179,179,179);stop-opacity:1"/><stop offset="1" style="stop-color:rgb(198,198,198);stop-opacity:1"/></linearGradient>
        <linearGradient id="_Linear14" x1="0" y1="0" x2="1" y2="0" gradientUnits="userSpaceOnUse" gradientTransform="matrix(107.632,-294.611,294.611,107.632,667.162,703.286)"><stop offset="0" style="stop-color:rgb(148,148,148);stop-opacity:1"/><stop offset="0.57" style="stop-color:rgb(158,158,158);stop-opacity:1"/><stop offset="0.79" style="stop-color:rgb(179,179,179);stop-opacity:1"/><stop offset="1" style="stop-color:rgb(198,198,198);stop-opacity:1"/></linearGradient>
        <linearGradient id="_Linear15" x1="0" y1="0" x2="1" y2="0" gradientUnits="userSpaceOnUse" gradientTransform="matrix(107.632,-294.611,294.611,107.632,667.162,703.286)"><stop offset="0" style="stop-color:rgb(148,148,148);stop-opacity:1"/><stop offset="0.57" style="stop-color:rgb(158,158,158);stop-opacity:1"/><stop offset="0.79" style="stop-color:rgb(179,179,179);stop-opacity:1"/><stop offset="1" style="stop-color:rgb(198,198,198);stop-opacity:1"/></linearGradient>
        <linearGradient id="_Linear16" x1="0" y1="0" x2="1" y2="0" gradientUnits="userSpaceOnUse" gradientTransform="matrix(107.632,-294.611,294.611,107.632,667.162,703.286)"><stop offset="0" style="stop-color:rgb(148,148,148);stop-opacity:1"/><stop offset="0.57" style="stop-color:rgb(158,158,158);stop-opacity:1"/><stop offset="0.79" style="stop-color:rgb(179,179,179);stop-opacity:1"/><stop offset="1" style="stop-color:rgb(198,198,198);stop-opacity:1"/></linearGradient>
        <linearGradient id="_Linear17" x1="0" y1="0" x2="1" y2="0" gradientUnits="userSpaceOnUse" gradientTransform="matrix(107.632,-294.611,294.611,107.632,667.162,703.286)"><stop offset="0" style="stop-color:rgb(148,148,148);stop-opacity:1"/><stop offset="0.57" style="stop-color:rgb(158,158,158);stop-opacity:1"/><stop offset="0.79" style="stop-color:rgb(179,179,179);stop-opacity:1"/><stop offset="1" style="stop-color:rgb(198,198,198);stop-opacity:1"/></linearGradient>
        <linearGradient id="_Linear18" x1="0" y1="0" x2="1" y2="0" gradientUnits="userSpaceOnUse" gradientTransform="matrix(107.632,-294.611,294.611,107.632,667.162,703.286)"><stop offset="0" style="stop-color:rgb(148,148,148);stop-opacity:1"/><stop offset="0.57" style="stop-color:rgb(158,158,158);stop-opacity:1"/><stop offset="0.79" style="stop-color:rgb(179,179,179);stop-opacity:1"/><stop offset="1" style="stop-color:rgb(198,198,198);stop-opacity:1"/></linearGradient>
        <linearGradient id="_Linear19" x1="0" y1="0" x2="1" y2="0" gradientUnits="userSpaceOnUse" gradientTransform="matrix(107.632,-294.611,294.611,107.632,667.162,703.286)"><stop offset="0" style="stop-color:rgb(148,148,148);stop-opacity:1"/><stop offset="0.57" style="stop-color:rgb(158,158,158);stop-opacity:1"/><stop offset="0.79" style="stop-color:rgb(179,179,179);stop-opacity:1"/><stop offset="1" style="stop-color:rgb(198,198,198);stop-opacity:1"/></linearGradient>
        <linearGradient id="_Linear20" x1="0" y1="0" x2="1" y2="0" gradientUnits="userSpaceOnUse" gradientTransform="matrix(107.632,-294.611,294.611,107.632,667.162,703.286)"><stop offset="0" style="stop-color:rgb(148,148,148);stop-opacity:1"/><stop offset="0.57" style="stop-color:rgb(158,158,158);stop-opacity:1"/><stop offset="0.79" style="stop-color:rgb(179,179,179);stop-opacity:1"/><stop offset="1" style="stop-color:rgb(198,198,198);stop-opacity:1"/></linearGradient>
        <linearGradient id="_Linear21" x1="0" y1="0" x2="1" y2="0" gradientUnits="userSpaceOnUse" gradientTransform="matrix(107.632,-294.611,294.611,107.632,667.162,703.286)"><stop offset="0" style="stop-color:rgb(148,148,148);stop-opacity:1"/><stop offset="0.57" style="stop-color:rgb(158,158,158);stop-opacity:1"/><stop offset="0.79" style="stop-color:rgb(179,179,179);stop-opacity:1"/><stop offset="1" style="stop-color:rgb(198,198,198);stop-opacity:1"/></linearGradient>
    </defs>
</svg>
